<svg width="72" height="36" viewBox="0 0 72 36" fill="none" xmlns="http://www.w3.org/2000/svg">
<path d="M71.0869 19.1053C70.5088 19.0263 69.9767 19.431 69.8978 20.0088C69.3881 23.741 67.5412 27.1742 64.6969 29.6758C61.827 32.1999 58.1394 33.59 54.3129 33.59C52.2309 33.59 50.2087 33.19 48.3024 32.4011C48.2708 32.3881 48.2342 32.3753 48.2013 32.3653C48.1789 32.3585 45.9294 31.6558 42.5798 28.9969C42.1229 28.6342 41.4588 28.7107 41.0961 29.1675C40.7336 29.6244 40.8099 30.2885 41.2667 30.6512C44.703 33.3788 47.1172 34.2346 47.5381 34.3706C49.689 35.254 51.9679 35.702 54.3129 35.702C58.653 35.702 62.8361 34.1251 66.0918 31.2618C69.3173 28.425 71.412 24.5301 71.9904 20.2947C72.0692 19.7166 71.6647 19.1842 71.0869 19.1053Z" fill="black"/>
<path fill-rule="evenodd" clip-rule="evenodd" d="M54.383 29.2094C50.6992 29.2095 47.9118 27.1671 45.6705 25.1691C43.2554 23.016 41.2513 20.9119 40.1885 19.7539C39.8387 20.1692 38.8532 21.3663 38.049 22.3433C37.6067 22.8806 37.2191 23.3514 37.0223 23.5889C37.6761 24.3464 38.3417 25.0726 39.0065 25.7532C39.4141 26.1705 39.4062 26.839 38.989 27.2465C38.5717 27.6539 37.9032 27.646 37.4957 27.2289C36.8831 26.6019 36.2708 25.938 35.6673 25.2484C29.3512 32.9358 25.436 34.1982 24.5631 34.3924C22.6579 35.1678 20.6442 35.6033 18.5763 35.6871C18.5692 35.6875 18.5621 35.6877 18.555 35.6878H18.5547L17.8633 35.7017L17.8419 35.7019C13.0514 35.7019 8.55434 33.8295 5.1792 30.4296C1.80434 27.03 -0.0348909 22.5187 -1.59292e-05 17.7265C0.0347184 12.972 1.93386 8.50571 5.34739 5.1504C8.76303 1.79326 13.2611 -0.0319129 18.023 0.0178683C20.2415 0.0399464 22.4034 0.464775 24.4486 1.28054C24.5455 1.31921 24.643 1.35746 24.7411 1.39417C25.7138 1.75782 30.6576 3.86256 36.2243 10.7921C42.6953 2.81785 46.7075 1.5234 47.591 1.32652C49.4963 0.551118 51.5099 0.115603 53.578 0.0317902C53.5851 0.0313683 53.5923 0.0312277 53.5995 0.0310871L54.2909 0.0171652L54.3123 0.0170246C58.5911 0.0170246 62.7291 1.55476 65.9644 4.34687C69.1655 7.10959 71.2872 10.9197 71.9387 15.0756C72.0289 15.6517 71.6351 16.192 71.0589 16.2824C70.4826 16.3723 69.9424 15.9788 69.8521 15.4027C69.278 11.7404 67.4073 8.38182 64.5844 5.94563C61.7352 3.48667 58.0912 2.13146 54.3226 2.12893L53.6531 2.14243C51.8026 2.21865 50.0022 2.61409 48.3017 3.31777C48.2158 3.35335 48.1612 3.37248 48.0715 3.38401C47.859 3.43281 44.0053 4.42056 37.508 12.5654C37.5057 12.5682 37.5034 12.5711 37.5011 12.5739C37.4991 12.5765 37.497 12.5791 37.4948 12.5816C37.4948 12.5816 30.1528 21.3266 27.1088 24.5208C25.0286 26.7037 22.0873 29.2094 17.7719 29.2094C11.5135 29.2092 6.42205 24.1176 6.42205 17.8594C6.42205 14.0553 8.31402 10.5227 11.483 8.40924C11.9684 8.08581 12.624 8.21687 12.9475 8.70202C13.271 9.18732 13.14 9.84292 12.6547 10.1665C10.0745 11.8869 8.53409 14.7625 8.53409 17.859C8.53409 22.9527 12.6783 27.0969 17.772 27.0969C20.5135 27.0969 22.9216 25.8528 25.5801 23.0632C27.3788 21.1759 29.0348 19.361 30.5816 17.5816C29.6031 16.5094 27.5404 14.3206 25.0786 12.1258C21.6157 9.03882 19.442 8.62117 17.7725 8.62117H17.7685C17.461 8.62117 17.1509 8.63663 16.8464 8.66687C16.2672 8.72396 15.7489 8.30082 15.6912 7.72046C15.6335 7.1401 16.0572 6.62302 16.6376 6.56523C17.011 6.5281 17.3914 6.50926 17.768 6.50926H17.7717C21.4554 6.50926 24.2427 8.55156 26.484 10.5496C28.8993 12.7027 30.9026 14.806 31.9659 15.9643C32.5078 15.3208 34.8514 12.4587 34.8514 12.4587C29.3969 5.53487 24.5513 3.57765 24.0016 3.37206C23.8894 3.33001 23.7781 3.28642 23.6669 3.24212C21.8645 2.52324 19.9589 2.14904 18.0022 2.12949C17.9494 2.12907 17.8959 2.12879 17.843 2.12879C13.7084 2.12879 9.80253 3.7329 6.82803 6.65649C3.81753 9.61538 2.14269 13.5522 2.11217 17.7415C2.08123 21.9668 3.70292 25.9442 6.67827 28.9413C9.65136 31.9362 13.6121 33.5867 17.8314 33.5896L18.5012 33.5761C20.3515 33.5 22.1521 33.1045 23.8525 32.4009C23.9383 32.3653 23.993 32.3463 24.0827 32.3346C24.2979 32.2853 28.2288 31.2766 34.8473 22.8999C35.0982 22.5826 42.0014 14.3921 45.0454 11.198C47.1257 9.0152 50.0673 6.50954 54.3822 6.50954H54.3823C60.6407 6.50954 65.7322 11.601 65.7322 17.8594C65.7322 24.1155 60.6427 29.207 54.3867 29.2094H54.383ZM54.3823 8.62159C51.6409 8.62145 49.2328 9.86541 46.5743 12.6551C44.7758 14.5422 43.1193 16.3572 41.5727 18.1361C42.5507 19.2083 44.6135 21.3975 47.0757 23.5927C50.5386 26.6798 52.7127 27.0975 54.3822 27.0975H54.3859C59.4777 27.0955 63.6203 22.9514 63.6203 17.8595C63.6203 12.7657 59.4761 8.62159 54.3823 8.62159Z" fill="black"/>
</svg>
