<svg width="71" height="72" viewBox="0 0 71 72" fill="none" xmlns="http://www.w3.org/2000/svg">
<path fill-rule="evenodd" clip-rule="evenodd" d="M38.9508 62.5574H41.3115C41.9634 62.5574 42.4918 63.0858 42.4918 63.7377V66.0983C42.4918 69.3577 39.8495 72 36.5902 72H5.90164C2.64225 72 0 69.3577 0 66.0983V63.7377C0 63.0858 0.528451 62.5574 1.18033 62.5574H3.54098V37.7705C3.54098 37.1186 4.06943 36.5901 4.72131 36.5901H15.722C16.3738 36.5901 16.9023 37.1186 16.9023 37.7705C16.9023 38.4224 16.3738 38.9508 15.722 38.9508H5.90164V62.5574H36.5902V50.9901C36.5902 50.3383 37.1186 49.8098 37.7705 49.8098C38.4224 49.8098 38.9508 50.3383 38.9508 50.9901V62.5574ZM36.5902 69.6393C38.5458 69.6393 40.1311 68.054 40.1311 66.0983V64.918H2.36066V66.0983C2.36066 68.054 3.94601 69.6393 5.90164 69.6393H8.26229V68.459C8.26229 67.8071 8.79075 67.2787 9.44262 67.2787C10.0945 67.2787 10.623 67.8071 10.623 68.459V69.6393H31.8689V68.459C31.8689 67.8071 32.3973 67.2787 33.0492 67.2787C33.7011 67.2787 34.2295 67.8071 34.2295 68.459V69.6393H36.5902Z" fill="black"/>
<path d="M61.3772 8.2623H63.7379C64.3898 8.2623 64.9182 7.73385 64.9182 7.08197C64.9182 6.43009 64.3898 5.90164 63.7379 5.90164H61.3772C59.4216 5.90164 57.8362 7.48699 57.8362 9.44263V10.623H56.6559C56.004 10.623 55.4756 11.1514 55.4756 11.8033C55.4756 12.4552 56.004 12.9836 56.6559 12.9836H57.8362V16.5246C57.8362 17.1765 58.3647 17.7049 59.0166 17.7049C59.6684 17.7049 60.1969 17.1765 60.1969 16.5246V12.9836H61.3772C62.0291 12.9836 62.5576 12.4552 62.5576 11.8033C62.5576 11.1514 62.0291 10.623 61.3772 10.623H60.1969V9.44263C60.1969 8.79075 60.7253 8.2623 61.3772 8.2623Z" fill="black"/>
<path d="M67.2791 1.18033H53.1152C51.1596 1.18033 49.5742 2.76568 49.5742 4.72131V7.08197C49.5742 7.73384 50.1027 8.2623 50.7545 8.2623C51.4064 8.2623 51.9349 7.73384 51.9349 7.08197V4.72131C51.9349 4.06943 52.4633 3.54098 53.1152 3.54098H67.2791C67.931 3.54098 68.4595 4.06943 68.4595 4.72131V18.8852C68.4595 19.5371 67.931 20.0656 67.2791 20.0656H53.1152C52.4633 20.0656 51.9349 19.5371 51.9349 18.8852V11.8033C51.9349 11.1514 51.4064 10.623 50.7545 10.623C50.1027 10.623 49.5742 11.1514 49.5742 11.8033V18.8852C49.5742 20.8409 51.1596 22.4262 53.1152 22.4262H67.2791C69.2348 22.4262 70.8201 20.8409 70.8201 18.8852V4.72131C70.8201 2.76568 69.2348 1.18033 67.2791 1.18033V1.18033Z" fill="black"/>
<path fill-rule="evenodd" clip-rule="evenodd" d="M60.1969 53.1147C57.5894 53.1147 55.4756 51.0009 55.4756 48.3934C55.4756 45.7859 57.5894 43.6721 60.1969 43.6721C62.8044 43.6721 64.9182 45.7859 64.9182 48.3934C64.9182 51.0009 62.8044 53.1147 60.1969 53.1147ZM60.1969 50.7541C61.5007 50.7541 62.5576 49.6972 62.5576 48.3934C62.5576 47.0897 61.5007 46.0328 60.1969 46.0328C58.8931 46.0328 57.8362 47.0897 57.8362 48.3934C57.8362 49.6972 58.8931 50.7541 60.1969 50.7541Z" fill="black"/>
<path d="M67.2791 37.7705H53.1152C51.1596 37.7705 49.5742 39.3559 49.5742 41.3115V55.4754C49.5742 57.4311 51.1596 59.0164 53.1152 59.0164H67.2791C69.2348 59.0164 70.8201 57.4311 70.8201 55.4754V53.1148C70.8201 52.4629 70.2917 51.9344 69.6398 51.9344C68.9879 51.9344 68.4595 52.4629 68.4595 53.1148V55.4754C68.4595 56.1273 67.931 56.6558 67.2791 56.6558H53.1152C52.4633 56.6558 51.9349 56.1273 51.9349 55.4754V41.3115C51.9349 40.6596 52.4633 40.1312 53.1152 40.1312H67.2791C67.931 40.1312 68.4595 40.6596 68.4595 41.3115V48.3935C68.4595 49.0453 68.9879 49.5738 69.6398 49.5738C70.2917 49.5738 70.8201 49.0453 70.8201 48.3935V41.3115C70.8201 39.3559 69.2348 37.7705 67.2791 37.7705Z" fill="black"/>
<path fill-rule="evenodd" clip-rule="evenodd" d="M27.1471 15.3443C26.9261 15.345 26.7094 15.2836 26.5216 15.1672C26.1757 14.9511 25.966 14.5717 25.9668 14.1639V7.08197C25.968 6.67288 26.181 6.29359 26.5297 6.07959C26.8783 5.86559 27.3129 5.84738 27.6783 6.03148L34.7602 9.57246C35.1544 9.77441 35.4024 10.18 35.4024 10.623C35.4024 11.0659 35.1544 11.4715 34.7602 11.6734L27.6783 15.2144C27.5138 15.2987 27.3319 15.3432 27.1471 15.3443ZM31.5852 10.623L28.3275 8.9941V12.2518L31.5852 10.623Z" fill="black"/>
<path fill-rule="evenodd" clip-rule="evenodd" d="M40.1307 10.623C40.1307 16.4898 35.3746 21.2459 29.5077 21.2459C23.6408 21.2459 18.8848 16.4898 18.8848 10.623C18.8848 4.75606 23.6408 0 29.5077 0C35.3746 0 40.1307 4.75606 40.1307 10.623ZM37.77 10.623C37.77 6.05981 34.0709 2.36066 29.5077 2.36066C24.9446 2.36066 21.2454 6.05981 21.2454 10.623C21.2454 15.1861 24.9446 18.8852 29.5077 18.8852C34.0709 18.8852 37.77 15.1861 37.77 10.623Z" fill="black"/>
<path d="M41.3113 25.9672C41.6828 25.9672 42.0326 25.7923 42.2555 25.4951L45.7965 20.7738C46.1876 20.2523 46.0819 19.5124 45.5604 19.1213C45.0389 18.7302 44.2991 18.8359 43.908 19.3574L40.367 24.0787C39.9759 24.6002 40.0816 25.34 40.6031 25.7311C40.8074 25.8844 41.0559 25.9672 41.3113 25.9672Z" fill="black"/>
<path d="M43.908 30.2164C44.1309 30.5136 44.4808 30.6885 44.8523 30.6885C45.1077 30.6885 45.3562 30.6057 45.5605 30.4524L50.2818 26.9115C50.8033 26.5203 50.909 25.7805 50.5178 25.259C50.1267 24.7375 49.3869 24.6318 48.8654 25.0229L44.1441 28.5639C43.6226 28.955 43.5169 29.6949 43.908 30.2164Z" fill="black"/>
<path d="M55.4752 32.8131C55.4185 32.4969 55.2354 32.2175 54.9681 32.0393C54.7008 31.8611 54.3724 31.7996 54.0588 31.8689L48.1571 33.0492C47.5053 33.1144 47.0297 33.6957 47.0948 34.3475C47.16 34.9994 47.7413 35.475 48.3932 35.4098H48.6293L54.5309 34.2295C54.8471 34.1728 55.1265 33.9897 55.3047 33.7224C55.4829 33.4551 55.5445 33.1268 55.4752 32.8131Z" fill="black"/>
<path fill-rule="evenodd" clip-rule="evenodd" d="M15.3443 33.0492H1.18033C0.528451 33.0492 0 32.5207 0 31.8689V12.9836C0 12.3317 0.528451 11.8033 1.18033 11.8033H15.3443C15.9961 11.8033 16.5246 12.3317 16.5246 12.9836V31.8689C16.5246 32.5207 15.9961 33.0492 15.3443 33.0492ZM14.1639 14.1639H2.36066V30.6885H14.1639V14.1639Z" fill="black"/>
<path d="M10.623 16.5246H8.26236C7.61048 16.5246 7.08203 17.053 7.08203 17.7049C7.08203 18.3568 7.61048 18.8853 8.26236 18.8853H10.623C11.2749 18.8853 11.8033 18.3568 11.8033 17.7049C11.8033 17.053 11.2749 16.5246 10.623 16.5246Z" fill="black"/>
<path d="M10.6233 21.2459H5.90201C5.25013 21.2459 4.72168 21.7744 4.72168 22.4262C4.72168 23.0781 5.25013 23.6066 5.90201 23.6066H10.6233C11.2752 23.6066 11.8036 23.0781 11.8036 22.4262C11.8036 21.7744 11.2752 21.2459 10.6233 21.2459Z" fill="black"/>
<path d="M10.6233 25.9672H5.90201C5.25013 25.9672 4.72168 26.4957 4.72168 27.1476C4.72168 27.7994 5.25013 28.3279 5.90201 28.3279H10.6233C11.2752 28.3279 11.8036 27.7994 11.8036 27.1476C11.8036 26.4957 11.2752 25.9672 10.6233 25.9672Z" fill="black"/>
<path fill-rule="evenodd" clip-rule="evenodd" d="M40.2733 32.6951C40.0624 32.3282 39.6719 32.1017 39.2487 32.1009C38.8256 32.1 38.4341 32.325 38.2218 32.691C38.0095 33.0571 38.0086 33.5086 38.2195 33.8754L43.4247 42.8813L24.5395 49.9633H24.4569H24.3624L21.2936 51.7338L19.2516 52.9141C18.7087 53.228 18.0632 53.3129 17.4575 53.1502C16.8551 52.9874 16.3416 52.5928 16.0293 52.0525L13.6687 47.9685C13.0921 46.8593 13.4803 45.4929 14.5539 44.8525L18.6378 42.4918L21.5887 47.6026C21.8003 47.9693 22.1922 48.1945 22.6155 48.1928C23.0381 48.1945 23.4293 47.9702 23.6413 47.6047C23.8533 47.2392 23.8537 46.7882 23.6424 46.4223L20.5972 41.158L35.4103 28.9417L35.8942 29.7797C36.2202 30.3468 36.9441 30.5423 37.5113 30.2164C38.0784 29.8905 38.2739 29.1665 37.948 28.5994L36.7677 26.5574C36.5926 26.2581 36.2948 26.0509 35.9532 25.9908C35.6098 25.9261 35.2554 26.0169 34.9854 26.2387L18.4608 39.8597L13.4326 42.7633C11.5768 43.8442 10.6844 46.0414 11.2608 48.1102L10.0805 48.783C8.83671 49.4972 8.14663 50.8912 8.3328 52.3133C8.51897 53.7354 9.5446 54.9047 10.9303 55.2748C11.2307 55.3543 11.5402 55.394 11.851 55.3928C12.4719 55.3902 13.0817 55.2276 13.6214 54.9207L14.8018 54.2479C15.3688 54.8336 16.0818 55.2574 16.8673 55.4754C17.2707 55.5882 17.6879 55.6439 18.1067 55.6407C18.9363 55.6426 19.7514 55.4225 20.4673 55.0033L21.4942 54.4131L23.8549 58.5089C24.8317 60.1976 26.9903 60.7782 28.6824 59.8072C29.4967 59.338 30.0911 58.5644 30.3347 57.6567C30.5782 56.749 30.4509 55.7817 29.9808 54.9679L27.8326 51.2262L45.5375 44.581C45.8625 44.4588 46.1172 44.1998 46.2339 43.8728C46.3502 43.5498 46.32 43.1921 46.1513 42.8931L40.2733 32.6951ZM12.3939 52.8669C12.1224 53.0238 11.7997 53.0663 11.4969 52.9849C11.1945 52.9064 10.9355 52.7111 10.7769 52.442C10.6199 52.1705 10.5775 51.8478 10.6588 51.5449C10.7402 51.2405 10.94 50.9813 11.2136 50.8249L12.2405 50.2348L13.4208 52.2767L12.3939 52.8669ZM28.0451 57.0689C28.1264 56.766 28.084 56.4433 27.927 56.1718L25.5782 52.1351H25.4837L23.5244 53.2564L25.8851 57.3521C26.2132 57.9099 26.9292 58.0994 27.4903 57.7771C27.7615 57.6235 27.9609 57.3689 28.0451 57.0689Z" fill="black"/>
</svg>
